<?xml version="1.0" standalone="no"?><!DOCTYPE svg PUBLIC "-//W3C//DTD SVG 1.1//EN" "http://www.w3.org/Graphics/SVG/1.1/DTD/svg11.dtd"><svg width="1162" height="793" version="1.1" xmlns="http://www.w3.org/2000/svg" xmlns:xlink="http://www.w3.org/1999/xlink"><defs xmlns="http://www.w3.org/1999/xhtml"><style type="text/css"><![CDATA[
body { font-weight: bold; }
text { font-size: small; color: black; }
circle, rect, polygon { stroke: black; }
.link { stroke: url("#gradient"); stroke-width: 1px; shape-rendering: auto; fill: none; }
.tooltip { position: absolute; text-align: left; font-size: 11px; padding: 3px; border-radius: 5px; opacity: 0.9; background: gray; }
svg { }]]></style></defs><g transform="translate(257.37440013039804,531.3190379331779)scale(1.2953422473251806)"><defs><linearGradient id="gradient" gradientUnits="userSpaceOnUse" spreadMethod="repeat" x1="0px" y1="0px" x2="250px" y2="0px"><stop offset=".4" stop-color="black" stop-opacity=".75"/><stop offset=".8" stop-color="black" stop-opacity="0"/></linearGradient></defs><path class="link" d="M0,0C37.5,0 37.5,-20 75,-20"/><path class="link" d="M0,0C37.5,0 37.5,0 75,0"/><path class="link" d="M0,0C37.5,0 37.5,20 75,20"/><path class="link" d="M75,-20C162.5,-20 162.5,-120 250,-120"/><path class="link" d="M75,-20C162.5,-20 162.5,-100 250,-100"/><path class="link" d="M75,-20C162.5,-20 162.5,-80 250,-80"/><path class="link" d="M75,-20C162.5,-20 162.5,-60 250,-60"/><path class="link" d="M75,-20C162.5,-20 162.5,-40 250,-40"/><path class="link" d="M75,-20C162.5,-20 162.5,-20 250,-20"/><path class="link" d="M75,-20C162.5,-20 162.5,0 250,0"/><path class="link" d="M75,-20C162.5,-20 162.5,20 250,20"/><path class="link" d="M75,-20C162.5,-20 162.5,40 250,40"/><path class="link" d="M75,-20C162.5,-20 162.5,60 250,60"/><path class="link" d="M75,-20C162.5,-20 162.5,80 250,80"/><path class="link" d="M250,-120C287.5,-120 287.5,-240 325,-240"/><path class="link" d="M250,-120C287.5,-120 287.5,0 325,0"/><path class="link" d="M325,-240C412.5,-240 412.5,-340 500,-340"/><path class="link" d="M325,-240C412.5,-240 412.5,-320 500,-320"/><path class="link" d="M325,-240C412.5,-240 412.5,-300 500,-300"/><path class="link" d="M325,-240C412.5,-240 412.5,-280 500,-280"/><path class="link" d="M325,-240C412.5,-240 412.5,-260 500,-260"/><path class="link" d="M325,-240C412.5,-240 412.5,-240 500,-240"/><path class="link" d="M325,-240C412.5,-240 412.5,-220 500,-220"/><path class="link" d="M325,-240C412.5,-240 412.5,-200 500,-200"/><path class="link" d="M325,-240C412.5,-240 412.5,-180 500,-180"/><path class="link" d="M325,-240C412.5,-240 412.5,-160 500,-160"/><path class="link" d="M325,-240C412.5,-240 412.5,-140 500,-140"/><path class="link" d="M325,0C412.5,0 412.5,-100 500,-100"/><path class="link" d="M325,0C412.5,0 412.5,-80 500,-80"/><path class="link" d="M325,0C412.5,0 412.5,-60 500,-60"/><path class="link" d="M325,0C412.5,0 412.5,-40 500,-40"/><path class="link" d="M325,0C412.5,0 412.5,-20 500,-20"/><path class="link" d="M325,0C412.5,0 412.5,0 500,0"/><path class="link" d="M325,0C412.5,0 412.5,20 500,20"/><path class="link" d="M325,0C412.5,0 412.5,40 500,40"/><path class="link" d="M325,0C412.5,0 412.5,60 500,60"/><path class="link" d="M325,0C412.5,0 412.5,80 500,80"/><path class="link" d="M325,0C412.5,0 412.5,100 500,100"/><g class="node" id="n1" transform="translate(0,0)" stroke-width="0px"><circle r="24.036615761300173" style="fill: rgb(192, 214, 194);"/><text dx="-26.036615761300173" dy="3" text-anchor="end">IF()</text></g><g class="node" id="n2" transform="translate(75,-20)" stroke-width="0px"><rect width="20" height="20" x="-10" y="-10" style="fill: rgb(171, 186, 186);"/><text dx="-3" dy="5">1</text></g><g class="node" id="n3" transform="translate(75,0)" stroke-width="0px"><rect width="20" height="20" x="-10" y="-10" style="fill: rgb(81, 147, 147);"/><text dx="-3" dy="5">2</text></g><g class="node" id="n4" transform="translate(75,20)" stroke-width="0px"><rect width="20" height="20" x="-10" y="-10" style="fill: rgb(81, 147, 147);"/><text dx="-3" dy="5">3</text></g><g class="node" id="n5" transform="translate(250,-120)" stroke-width="0px"><circle r="22.189115640932453" style="fill: rgb(192, 214, 194);"/><text dx="-24.189115640932453" dy="3" text-anchor="end">=</text></g><g class="node" id="n6" transform="translate(250,-100)" stroke-width="0px"><circle r="21.27615505994428" style="fill: rgb(109, 191, 126);"/><text dx="-23.27615505994428" dy="3" text-anchor="end">ISNA()</text></g><g class="node" id="n7" transform="translate(250,-80)" stroke-width="0px"><circle r="20.682580005627152" style="fill: rgb(109, 191, 126);"/><text dx="-22.682580005627152" dy="3" text-anchor="end">AND()</text></g><g class="node" id="n8" transform="translate(250,-60)" stroke-width="0px"><circle r="20.235003889398378" style="fill: rgb(109, 191, 126);"/><text dx="-22.235003889398378" dy="3" text-anchor="end">&lt;=</text></g><g class="node" id="n9" transform="translate(250,-40)" stroke-width="0px"><circle r="19.393848801896603" style="fill: rgb(109, 191, 126);"/><text dx="-21.393848801896603" dy="3" text-anchor="end">&lt;</text></g><g class="node" id="n10" transform="translate(250,-20)" stroke-width="0px"><circle r="19.36247579282631" style="fill: rgb(109, 191, 126);"/><text dx="-21.36247579282631" dy="3" text-anchor="end">&gt;</text></g><g class="node" id="n11" transform="translate(250,0)" stroke-width="0px"><circle r="16.920013486334984" style="fill: rgb(109, 191, 126);"/><text dx="-18.920013486334984" dy="3" text-anchor="end">ISERROR()</text></g><g class="node" id="n12" transform="translate(250,20)" stroke-width="0px"><circle r="16.801459417504493" style="fill: rgb(109, 191, 126);"/><text dx="-18.801459417504493" dy="3" text-anchor="end">&gt;=</text></g><g class="node" id="n13" transform="translate(250,40)" stroke-width="1px"><circle r="15.186170653912523" style="fill: rgb(255, 255, 255);"/><text dx="-17.186170653912523" dy="3" text-anchor="end">~REF~</text></g><g class="node" id="n14" transform="translate(250,60)" stroke-width="0px"><circle r="14.965446775337089" style="fill: rgb(109, 191, 126);"/><text dx="-16.96544677533709" dy="3" text-anchor="end">OR()</text></g><g class="node" id="n15" transform="translate(250,80)" stroke-width="0px"><polygon height="20" width="20" points="-10,-5 0,15 10,-5" style="fill: rgb(207, 229, 167);"/></g><g class="node" id="n16" transform="translate(325,-240)" stroke-width="0px"><rect width="20" height="20" x="-10" y="-10" style="fill: rgb(171, 186, 186);"/><text dx="-3" dy="5">1</text></g><g class="node" id="n17" transform="translate(325,0)" stroke-width="0px"><rect width="20" height="20" x="-10" y="-10" style="fill: rgb(171, 186, 186);"/><text dx="-3" dy="5">2</text></g><g class="node" id="n18" transform="translate(500,-340)" stroke-width="1px"><circle r="21.820492516814614" style="fill: rgb(255, 255, 255);"/><text dx="-23.820492516814614" dy="3" text-anchor="end">~REF~</text></g><g class="node" id="n19" transform="translate(500,-320)" stroke-width="0px"><circle r="18.188414600597028" style="fill: rgb(109, 191, 126);"/><text dx="-20.188414600597028" dy="3" text-anchor="end">VLOOKUP()</text></g><g class="node" id="n20" transform="translate(500,-300)" stroke-width="0px"><circle r="16.791694479326903" style="fill: rgb(109, 191, 126);"/><text dx="-18.791694479326903" dy="3" text-anchor="end">MONTH()</text></g><g class="node" id="n21" transform="translate(500,-280)" stroke-width="0px"><circle r="14.32975383966242" style="fill: rgb(109, 191, 126);"/><text dx="-16.32975383966242" dy="3" text-anchor="end">SUM()</text></g><g class="node" id="n22" transform="translate(500,-260)" stroke-width="0px"><circle r="13.21231377393368" style="fill: rgb(109, 191, 126);"/><text dx="-15.21231377393368" dy="3" text-anchor="end">+</text></g><g class="node" id="n23" transform="translate(500,-240)" stroke-width="0px"><circle r="13.133695021947798" style="fill: rgb(109, 191, 126);"/><text dx="-15.133695021947798" dy="3" text-anchor="end">ISNUMBER()</text></g><g class="node" id="n24" transform="translate(500,-220)" stroke-width="0px"><circle r="12.91089442115539" style="fill: rgb(109, 191, 126);"/><text dx="-14.91089442115539" dy="3" text-anchor="end">YEAR()</text></g><g class="node" id="n25" transform="translate(500,-200)" stroke-width="0px"><circle r="12.05371197425175" style="fill: rgb(109, 191, 126);"/><text dx="-14.05371197425175" dy="3" text-anchor="end">ROUND()</text></g><g class="node" id="n26" transform="translate(500,-180)" stroke-width="0px"><circle r="12.023499422689964" style="fill: rgb(109, 191, 126);"/><text dx="-14.023499422689964" dy="3" text-anchor="end">ISNA()</text></g><g class="node" id="n27" transform="translate(500,-160)" stroke-width="0px"><circle r="11.897103478403157" style="fill: rgb(109, 191, 126);"/><text dx="-13.897103478403157" dy="3" text-anchor="end">-</text></g><g class="node" id="n28" transform="translate(500,-140)" stroke-width="0px"><polygon height="20" width="20" points="-10,-5 0,15 10,-5" style="fill: rgb(207, 229, 167);"/></g><g class="node" id="n29" transform="translate(500,-100)" stroke-width="1px"><circle r="20.99425783304377" style="fill: rgb(255, 255, 255);"/><text dx="-22.99425783304377" dy="3" text-anchor="end">~STR~</text></g><g class="node" id="n30" transform="translate(500,-80)" stroke-width="1px"><circle r="20.65885314789449" style="fill: rgb(255, 255, 255);"/><text dx="-22.65885314789449" dy="3" text-anchor="end">~NUM~</text></g><g class="node" id="n31" transform="translate(500,-60)" stroke-width="0px"><circle r="16.2436171226748" style="fill: rgb(109, 191, 126);"/><text dx="-18.2436171226748" dy="3" text-anchor="end">MONTH()</text></g><g class="node" id="n32" transform="translate(500,-40)" stroke-width="1px"><circle r="16.121269248560605" style="fill: white;"/><text dx="-18.121269248560605" dy="3" text-anchor="end">~REF~</text></g><g class="node" id="n33" transform="translate(500,-20)" stroke-width="1px"><circle r="14.937199357387144" style="fill: rgb(255, 255, 255);"/><text dx="-16.937199357387144" dy="3" text-anchor="end">~BOOL~</text></g><g class="node" id="n34" transform="translate(500,0)" stroke-width="0px"><circle r="11.020599913279623" style="fill: rgb(109, 191, 126);"/><text dx="-13.020599913279623" dy="3" text-anchor="end">YEAR()</text></g><g class="node" id="n35" transform="translate(500,20)" stroke-width="0px"><circle r="10.115014403811315" style="fill: rgb(109, 191, 126);"/><text dx="-12.115014403811315" dy="3" text-anchor="end">*</text></g><g class="node" id="n36" transform="translate(500,40)" stroke-width="0px"><circle r="9.704365036222725" style="fill: rgb(109, 191, 126);"/><text dx="-11.704365036222725" dy="3" text-anchor="end">+</text></g><g class="node" id="n37" transform="translate(500,60)" stroke-width="0px"><circle r="8.112605001534574" style="fill: rgb(109, 191, 126);"/><text dx="-10.112605001534574" dy="3" text-anchor="end">-</text></g><g class="node" id="n38" transform="translate(500,80)" stroke-width="0px"><circle r="7.795880017344075" style="fill: rgb(109, 191, 126);"/><text dx="-9.795880017344075" dy="3" text-anchor="end">MAX()</text></g><g class="node" id="n39" transform="translate(500,100)" stroke-width="0px"><polygon height="20" width="20" points="-10,-5 0,15 10,-5" style="fill: rgb(207, 229, 167);"/></g></g></svg>